HIERARCHY
ROOT Joint1
{
	OFFSET 0.000000 0.000000 0.000000
	CHANNELS 6 Xposition Yposition Zposition Xrotation Yrotation Zrotation
	JOINT Joint2
	{
		OFFSET -0.000000 0.000000 1.456275
		CHANNELS 6 Xposition Yposition Zposition Xrotation Yrotation Zrotation
		JOINT Joint3
		{
			OFFSET -0.000000 0.000002 1.471446
			CHANNELS 6 Xposition Yposition Zposition Xrotation Yrotation Zrotation
			JOINT Joint4
			{
				OFFSET 0.625745 0.000000 0.917755
				CHANNELS 6 Xposition Yposition Zposition Xrotation Yrotation Zrotation
				JOINT Joint5
				{
					OFFSET -0.629534 0.000001 0.940221
					CHANNELS 6 Xposition Yposition Zposition Xrotation Yrotation Zrotation
					JOINT Joint6
					{
						OFFSET -0.000001 0.113772 1.960660
						CHANNELS 6 Xposition Yposition Zposition Xrotation Yrotation Zrotation
						JOINT Joint7
						{
							OFFSET -0.669733 -0.113771 0.388340
							CHANNELS 6 Xposition Yposition Zposition Xrotation Yrotation Zrotation
							End Site
							{
								OFFSET 0.005509 0.005509 0.438980
							}
						}
					}
				}
			}
		}
	}
}
MOTION
Frames: 29
Frame Time: 0.041667
0.000000 0.000000 0.000000 -0.000000 1.019410 -8.569765 -0.000000 0.000000 1.456275 -0.000001 -45.626258 0.000000 -0.000000 0.000002 1.471446 -0.000002 -1.133459 50.182513 0.625745 0.000001 0.917755 0.000004 148.184779 -0.000001 -0.629534 0.000001 0.940221 -0.000002 1.709736 52.496639 -0.000001 0.113772 1.960660 -88.303868 105.494635 0.000002 -0.669733 -0.113771 0.388340 0.269532 2.259343 28.401243 
0.000000 0.000000 0.000000 -0.000000 1.019410 -8.788995 -0.000000 0.000000 1.456275 -0.000001 -45.642804 0.000001 -0.000000 0.000002 1.471446 -0.000002 -1.133456 51.468645 0.625744 0.000000 0.917755 0.000005 148.522026 0.000000 -0.629534 0.000001 0.940221 -0.000002 1.709736 53.841596 -0.000001 0.113772 1.960660 -88.303868 105.892241 0.000004 -0.669733 -0.113771 0.388340 0.254589 2.213292 25.673822 
0.000000 0.000000 0.000000 -0.000000 1.019410 -9.014058 -0.000000 -0.000000 1.456275 0.000000 -45.659780 -0.000001 -0.000000 0.000002 1.471446 -0.000001 -1.133453 52.788988 0.625744 0.000000 0.917755 0.000006 148.868249 0.000000 -0.629534 0.000001 0.940221 -0.000003 1.709737 55.222325 -0.000001 0.113772 1.960660 -88.303875 106.300420 -0.000007 -0.669733 -0.113771 0.388340 0.236987 2.166810 22.873936 
0.000000 0.000000 0.000000 -0.000000 1.019410 -9.233288 -0.000000 -0.000000 1.456275 -0.000001 -45.676323 -0.000000 -0.000000 0.000002 1.471446 -0.000002 -1.133453 54.075117 0.625744 0.000000 0.917755 0.000003 149.205510 0.000000 -0.629534 0.000001 0.940221 0.000001 1.709739 56.567275 -0.000001 0.113772 1.960661 -88.303875 106.698026 0.000001 -0.669733 -0.113771 0.388340 0.217681 2.122413 20.146656 
0.000000 0.000000 0.000000 -0.000000 1.019410 -9.446687 -0.000000 0.000000 1.456275 0.000000 -45.692422 -0.000000 -0.000001 0.000002 1.471446 -0.000001 -1.133457 55.327046 0.625745 0.000000 0.917755 0.000005 149.533782 -0.000002 -0.629534 0.000001 0.940221 -0.000001 1.709737 57.876462 -0.000001 0.113772 1.960660 -88.303868 107.085058 -0.000006 -0.669733 -0.113771 0.388340 0.196878 2.080124 17.491971 
0.000000 0.000000 0.000000 -0.000000 1.019410 -9.657172 -0.000000 -0.000000 1.456275 -0.000001 -45.708306 0.000000 -0.000001 0.000002 1.471446 -0.000002 -1.133454 56.561862 0.625744 0.000000 0.917755 0.000007 149.857574 0.000001 -0.629534 0.000001 0.940221 0.000001 1.709736 59.167757 -0.000001 0.113772 1.960661 -88.303868 107.466804 0.000008 -0.669733 -0.113771 0.388340 0.174457 2.039400 14.873616 
0.000000 0.000000 0.000000 -0.000000 1.019410 -9.867655 -0.000000 0.000000 1.456275 -0.000000 -45.724186 -0.000000 -0.000000 0.000002 1.471446 -0.000003 -1.133453 57.796685 0.625745 0.000000 0.917755 0.000001 150.181366 -0.000001 -0.629534 0.000000 0.940221 -0.000002 1.709737 60.459052 -0.000001 0.113772 1.960660 -88.303868 107.848544 0.000001 -0.669733 -0.113771 0.388340 0.150198 1.999743 12.255305 
0.000000 0.000000 0.000000 -0.000000 1.019410 -10.081055 -0.000000 0.000000 1.456275 -0.000000 -45.740281 -0.000001 -0.000000 0.000002 1.471446 -0.000003 -1.133454 59.048618 0.625745 0.000000 0.917755 0.000004 150.509639 0.000001 -0.629533 0.000001 0.940221 0.000000 1.709736 61.768242 -0.000001 0.113772 1.960661 -88.303875 108.235583 0.000008 -0.669733 -0.113771 0.388341 0.123788 1.960708 9.600772 
0.000000 0.000000 0.000000 -0.000000 1.019410 -10.300285 -0.000000 0.000000 1.456275 0.000000 -45.756824 -0.000001 -0.000001 0.000002 1.471446 -0.000003 -1.133456 60.334742 0.625745 -0.000000 0.917755 0.000009 150.846886 -0.000002 -0.629533 0.000001 0.940221 -0.000000 1.709738 63.113188 -0.000001 0.113772 1.960660 -88.303875 108.633189 -0.000005 -0.669733 -0.113771 0.388340 0.094800 1.921926 6.873757 
0.000000 0.000000 0.000000 -0.000000 1.019410 -10.525347 -0.000000 0.000000 1.456275 0.000000 -45.773800 0.000000 -0.000000 0.000002 1.471445 -0.000003 -1.133458 61.655079 0.625745 0.000000 0.917755 0.000006 151.193095 -0.000001 -0.629534 0.000001 0.940221 -0.000002 1.709737 64.493911 -0.000001 0.113772 1.960660 -88.303875 109.041361 0.000001 -0.669733 -0.113771 0.388340 0.063151 1.883592 4.074258 
0.000000 0.000000 0.000000 -0.000000 1.019410 -10.744576 -0.000000 0.000000 1.456275 0.000001 -45.790346 -0.000001 -0.000000 0.000002 1.471446 -0.000003 -1.133452 62.941218 0.625745 0.000000 0.917755 0.000004 151.530356 -0.000002 -0.629534 0.000001 0.940221 -0.000001 1.709737 65.838871 -0.000001 0.113772 1.960661 -88.303875 109.438974 0.000006 -0.669733 -0.113771 0.388340 0.030559 1.847781 1.347320 
0.000000 0.000000 0.000000 -0.000000 1.019410 -10.943397 -0.000000 0.000000 1.456275 -0.000000 -45.805345 -0.000001 -0.000000 0.000002 1.471446 -0.000003 -1.133459 64.107623 0.625744 0.000000 0.917755 0.000005 151.836212 -0.000003 -0.629534 0.000001 0.940221 -0.000002 1.709738 67.058627 -0.000001 0.113772 1.960661 -88.303868 109.799573 -0.000004 -0.669733 -0.113771 0.388340 -0.000442 1.816674 -1.125749 
0.000000 0.000000 0.000000 -0.000000 1.019410 -11.112603 -0.000000 -0.000000 1.456275 -0.000001 -45.818111 -0.000002 -0.000000 0.000002 1.471445 -0.000003 -1.133458 65.100275 0.625744 0.000000 0.917755 0.000003 152.096510 -0.000001 -0.629534 0.000001 0.940221 -0.000005 1.709737 68.096685 -0.000001 0.113772 1.960661 -88.303855 110.106447 0.000001 -0.669733 -0.113771 0.388340 -0.027861 1.791277 -3.230399 
0.000000 0.000000 0.000000 -0.000000 1.019410 -11.264444 -0.000000 0.000000 1.456275 -0.000000 -45.829569 -0.000000 -0.000000 0.000002 1.471446 -0.000002 -1.133458 65.991068 0.625745 -0.000000 0.917755 0.000005 152.330089 -0.000002 -0.629534 0.000001 0.940221 -0.000005 1.709737 69.028200 -0.000001 0.113772 1.960660 -88.303875 110.381833 -0.000001 -0.669734 -0.113771 0.388341 -0.053244 1.769356 -5.119051 
0.000000 0.000000 0.000000 -0.000000 1.019410 -11.416540 -0.000000 0.000000 1.456275 0.000001 -45.841047 -0.000000 -0.000000 0.000002 1.471446 -0.000003 -1.133454 66.883357 0.625745 0.000000 0.917755 0.000001 152.564050 -0.000003 -0.629534 0.000001 0.940221 -0.000001 1.709737 69.961300 -0.000001 0.113772 1.960660 -88.303882 110.657691 0.000008 -0.669733 -0.113771 0.388340 -0.079386 1.748248 -7.010863 
0.000000 0.000000 0.000000 -0.000000 1.019410 -11.586512 -0.000000 0.000000 1.456275 0.000000 -45.853867 -0.000000 -0.000001 0.000002 1.471446 -0.000002 -1.133455 67.880503 0.625745 0.000000 0.917755 0.000001 152.825524 -0.000000 -0.629534 0.000001 0.940221 -0.000001 1.709737 71.004051 -0.000001 0.113772 1.960661 -88.303882 110.965951 0.000015 -0.669733 -0.113771 0.388340 -0.109400 1.725696 -9.124989 
0.000000 0.000000 0.000000 -0.000000 1.019410 -11.786412 -0.000000 0.000000 1.456275 0.000000 -45.868948 -0.000000 -0.000000 0.000002 1.471446 -0.000004 -1.133454 69.053240 0.625744 0.000000 0.917755 0.000003 153.133032 0.000000 -0.629534 0.000001 0.940221 0.000000 1.709735 72.230425 -0.000001 0.113772 1.960661 -88.303875 111.328498 0.000007 -0.669733 -0.113771 0.388340 -0.145737 1.700607 -11.611376 
0.000000 0.000000 0.000000 -0.000000 1.019410 -12.006040 -0.000000 0.000000 1.456275 0.000001 -45.885518 0.000001 -0.000000 0.000002 1.471446 -0.000002 -1.133457 70.341700 0.625744 0.000000 0.917755 0.000006 153.470895 0.000000 -0.629534 0.000001 0.940221 -0.000000 1.709738 73.577830 -0.000001 0.113772 1.960660 -88.303875 111.726821 0.000006 -0.669733 -0.113771 0.388340 -0.186876 1.674891 -14.343105 
0.000000 0.000000 0.000000 -0.000000 1.019410 -12.229628 -0.000000 0.000000 1.456275 -0.000001 -45.902389 0.000001 -0.000001 0.000002 1.471446 -0.000003 -1.133457 71.653384 0.625745 0.000000 0.917755 0.000005 153.814849 -0.000000 -0.629533 0.000001 0.940221 0.000001 1.709736 74.949496 -0.000000 0.113772 1.960660 -88.303882 112.132329 0.000013 -0.669733 -0.113771 0.388341 -0.229962 1.650756 -17.124054 
0.000000 0.000000 0.000000 -0.000000 1.019410 -12.445338 -0.000000 0.000000 1.456275 -0.000000 -45.918658 0.000001 -0.000000 0.000002 1.471446 -0.000004 -1.133456 72.918881 0.625745 0.000001 0.917755 -0.000001 154.146687 -0.000000 -0.629534 0.000001 0.940221 -0.000005 1.709738 76.272866 -0.000000 0.113772 1.960661 -88.303875 112.523562 0.000005 -0.669733 -0.113771 0.388340 -0.272598 1.629475 -19.807060 
0.000000 0.000000 0.000000 -0.000000 1.019410 -12.657091 -0.000000 0.000000 1.456275 0.000000 -45.934634 -0.000002 -0.000000 0.000002 1.471445 -0.000004 -1.133453 74.161156 0.625745 0.000001 0.917755 0.000001 154.472446 0.000000 -0.629533 0.000001 0.940220 -0.000002 1.709737 77.571954 -0.000001 0.113772 1.960661 -88.303875 112.907610 0.000004 -0.669733 -0.113771 0.388340 -0.315374 1.610548 -22.440826 
0.000000 0.000000 0.000000 -0.000000 1.019410 -12.872741 -0.000000 -0.000000 1.456275 -0.000001 -45.950910 -0.000002 -0.000000 0.000002 1.471446 -0.000004 -1.133456 75.426264 0.625745 0.000000 0.917755 0.000006 154.804175 0.000000 -0.629534 0.000001 0.940221 -0.000001 1.709736 78.894928 -0.000001 0.113773 1.960661 -88.303882 113.298720 0.000020 -0.669734 -0.113771 0.388340 -0.359779 1.593316 -25.122990 
0.000000 0.000000 0.000000 -0.000000 1.019410 -13.096215 -0.000000 0.000000 1.456275 0.000001 -45.967764 0.000000 -0.000000 0.000002 1.471446 -0.000004 -1.133453 76.737305 0.625745 0.000001 0.917755 0.000005 155.147952 0.000002 -0.629534 0.000001 0.940221 -0.000002 1.709737 80.265924 -0.000001 0.113772 1.960660 -88.303889 113.704024 0.000011 -0.669733 -0.113771 0.388340 -0.406600 1.577667 -27.902518 
0.000000 0.000000 0.000000 -0.000000 1.019410 -13.315800 -0.000000 0.000000 1.456275 0.000000 -45.984337 -0.000001 -0.000000 0.000002 1.471446 -0.000005 -1.133455 78.025506 0.625745 0.000001 0.917755 0.000003 155.485732 0.000000 -0.629534 0.000001 0.940221 -0.000001 1.709739 81.613042 -0.000001 0.113772 1.960661 -88.303875 114.102272 0.000008 -0.669734 -0.113771 0.388340 -0.453288 1.564521 -30.633627 
0.000000 0.000000 0.000000 -0.000000 1.019410 -13.515851 -0.000000 0.000000 1.456275 -0.000001 -45.999425 -0.000001 -0.000000 0.000002 1.471446 -0.000003 -1.133456 79.199144 0.625745 0.000000 0.917755 0.000006 155.793487 0.000000 -0.629534 0.000001 0.940221 -0.000000 1.709736 82.840359 -0.000001 0.113772 1.960661 -88.303889 114.465105 0.000013 -0.669733 -0.113771 0.388340 -0.496329 1.554491 -33.121851 
0.000000 0.000000 0.000000 -0.000000 1.019410 -13.686229 -0.000000 0.000000 1.456275 -0.000001 -46.012287 0.000001 -0.000000 0.000002 1.471445 -0.000004 -1.133454 80.198661 0.625745 0.000000 0.917755 0.000005 156.055575 -0.000001 -0.629534 0.000001 0.940221 -0.000002 1.709737 83.885590 -0.000001 0.113772 1.960660 -88.303875 114.774089 0.000008 -0.669733 -0.113771 0.388340 -0.533298 1.547427 -35.240914 
0.000000 0.000000 0.000000 -0.000000 1.019410 -13.838697 -0.000000 -0.000000 1.456275 0.000001 -46.023785 -0.000000 -0.000000 0.000002 1.471446 -0.000005 -1.133451 81.093142 0.625745 0.000000 0.917755 0.000002 156.290137 -0.000001 -0.629534 0.000000 0.940221 -0.000004 1.709735 84.820984 -0.000001 0.113772 1.960660 -88.303889 115.050630 -0.000000 -0.669733 -0.113771 0.388340 -0.566578 1.542269 -37.137292 
0.000000 0.000000 0.000000 -0.000000 1.019410 -13.990526 -0.000000 0.000000 1.456275 0.000001 -46.035239 -0.000000 -0.000000 0.000002 1.471446 -0.000005 -1.133456 81.983853 0.625745 0.000000 0.917755 0.000004 156.523702 0.000000 -0.629534 0.000001 0.940220 -0.000003 1.709736 85.752424 -0.000001 0.113772 1.960661 -88.303875 115.325982 0.000006 -0.669733 -0.113771 0.388340 -0.599877 1.538234 -39.025655 
0.000000 0.000000 0.000000 -0.000000 1.019410 -14.158965 -0.000000 0.000000 1.456275 -0.000002 -46.047947 -0.000000 -0.000000 0.000002 1.471446 -0.000005 -1.133456 82.972025 0.625745 0.000000 0.917755 0.000002 156.782812 0.000001 -0.629534 0.000001 0.940221 -0.000000 1.709736 86.785797 -0.000001 0.113772 1.960660 -88.303882 115.631469 0.000011 -0.669733 -0.113771 0.388340 -0.636951 1.535037 -41.120676 
